<svg width="134" height="116" viewBox="0 0 134 116" fill="none" xmlns="http://www.w3.org/2000/svg">
<path d="M32.5787 100.136C32.5787 91.7996 37.3991 88.0337 43.672 88.0337C47.6368 88.0337 50.9047 89.7009 52.8329 92.8218C54.7068 89.7009 57.9789 88.0337 61.9938 88.0337C68.2625 88.0337 73.0871 91.7996 73.0871 100.136V115.305H66.7099V100.136C66.7099 95.7793 64.4604 94.0031 61.3511 94.0031C58.2418 94.0031 56.0465 95.8337 56.0465 100.136V115.305H49.6694V100.136C49.6694 95.8337 47.3656 94.0031 44.3105 94.0031C41.2555 94.0031 38.9517 95.7793 38.9517 100.136V115.305H32.5745V100.136H32.5787Z" fill="#036973"/>
<path d="M77.2648 102.017C77.2648 93.9487 83.1579 88.0337 91.5175 88.0337C99.8771 88.0337 105.77 93.9487 105.77 102.017C105.77 110.085 99.8771 116 91.5175 116C83.1579 116 77.2648 110.085 77.2648 102.017ZM99.2886 102.017C99.2886 97.3376 96.1793 94.0031 91.5175 94.0031C86.8556 94.0031 83.6963 97.3376 83.6963 102.017C83.6963 106.696 86.8556 110.031 91.5175 110.031C96.1793 110.031 99.2886 106.696 99.2886 102.017Z" fill="#036973"/>
<path d="M111.709 88.7332C113.065 88.7332 114.276 89.5878 114.731 90.8739L121.312 109.44L127.911 90.8236C128.353 89.5711 129.538 88.7332 130.861 88.7332C133.069 88.7332 134.584 90.966 133.779 93.0271L126.463 111.723C125.62 113.88 123.541 115.3 121.229 115.3C118.917 115.3 116.843 113.88 115.995 111.723L108.721 93.1276C107.894 91.0163 109.447 88.7332 111.705 88.7332H111.709Z" fill="#036973"/>
<path d="M25.3459 94.4346C27.032 94.4346 28.401 93.0606 28.401 91.3682V91.1001C28.401 89.4077 27.032 88.0337 25.3459 88.0337H3.05503C1.36892 88.0337 0 89.4077 0 91.1001V112.934C0 114.626 1.36892 116 3.05503 116H25.3459C27.032 116 28.401 114.626 28.401 112.934V112.72C28.401 111.028 27.032 109.654 25.3459 109.654H6.53577V105.096H21.9278C23.6139 105.096 24.9828 103.722 24.9828 102.029C24.9828 100.337 23.6139 98.963 21.9278 98.963H6.53577V94.4304H25.3459V94.4346Z" fill="#036973"/>
<path d="M87.0101 0C80.4534 0 74.5145 2.66845 70.2157 6.98321C65.917 2.66845 59.9822 0 53.4214 0H7.25779C3.25119 0 0 3.25911 0 7.28482C0 11.3063 3.25119 14.5696 7.25779 14.5696H53.4214C55.8879 14.5696 58.2084 15.5331 59.953 17.2842L70.2157 27.5851L80.4785 17.2842C82.223 15.5331 84.5435 14.5696 87.0101 14.5696C92.1018 14.5696 96.2461 18.7294 96.2461 23.8401C96.2461 26.32 95.282 28.6492 93.5291 30.4044L70.2115 53.8088L49.5901 33.1105H29.0646L70.2115 74.4108L103.792 40.7054C108.095 36.3906 110.758 30.4253 110.758 23.8401C110.762 10.6738 100.128 0 87.0101 0Z" fill="#2ED7AE"/>
<path d="M48.4465 59.8411H7.25779C3.25119 59.8411 0 63.1044 0 67.1259C0 71.1475 3.25119 74.4108 7.25779 74.4108H62.9579L48.4423 59.8411H48.4465Z" fill="#036973"/>
<path d="M21.8109 33.1105H7.25779C3.25119 33.1105 0 36.3738 0 40.3954C0 44.4169 3.25119 47.6802 7.25779 47.6802H36.3265L21.8109 33.1105Z" fill="#036973"/>
</svg>
