<svg width="40" height="40" viewBox="0 0 40 40" fill="none" xmlns="http://www.w3.org/2000/svg">
<path d="M33.3594 33.4375L30.9375 35.8594L25.0781 30H16.6406C15.2865 30 14.1146 29.5052 13.125 28.5156C12.1354 27.526 11.6406 26.3542 11.6406 25V15.3906C11.6406 14.401 12.0052 13.5417 12.7344 12.8125C13.5156 12.0312 14.401 11.6406 15.3906 11.6406H15.4688C16.4583 11.6406 17.3698 12.0573 18.2031 12.8906L20.5469 15.4688C21.4323 16.4583 22.6042 17.2656 24.0625 17.8906C25.5729 18.5156 27.0052 18.8281 28.3594 18.8281V22.5C25.1302 22.5 22.0573 21.276 19.1406 18.8281V25H24.9219L33.3594 33.4375ZM10 26.6406C10 27.9948 10.4948 29.1667 11.4844 30.1562C12.474 31.1458 13.6458 31.6406 15 31.6406H25V35H15C12.7083 35 10.7292 34.1927 9.0625 32.5781C7.44792 30.9115 6.64062 28.9323 6.64062 26.6406V11.6406H10V26.6406ZM15 10C14.1146 10 13.3333 9.66146 12.6562 8.98438C11.9792 8.30729 11.6406 7.52604 11.6406 6.64062C11.6406 5.75521 11.9792 4.97396 12.6562 4.29688C13.3333 3.61979 14.1146 3.28125 15 3.28125C15.8854 3.28125 16.6667 3.61979 17.3438 4.29688C18.0208 4.97396 18.3594 5.75521 18.3594 6.64062C18.3594 7.52604 18.0208 8.30729 17.3438 8.98438C16.6667 9.66146 15.8854 10 15 10Z" fill="white"/>
</svg>
