<svg width="64" height="64" viewBox="0 0 64 64" fill="none" xmlns="http://www.w3.org/2000/svg">
<path d="M45.7083 16C42.8668 16 40.293 17.1564 38.43 19.0264C36.567 17.1564 33.995 16 31.1517 16H11.1454C9.409 16 8 17.4124 8 19.1571C8 20.8999 9.409 22.3142 11.1454 22.3142H31.1517C32.2207 22.3142 33.2263 22.7317 33.9824 23.4906L38.43 27.9548L42.8777 23.4906C43.6337 22.7317 44.6394 22.3142 45.7083 22.3142C47.915 22.3142 49.7111 24.1169 49.7111 26.3318C49.7111 27.4066 49.2932 28.4159 48.5336 29.1766L38.4282 39.3196L29.4913 30.3494H20.596L38.4282 48.2481L52.9812 33.6409C54.846 31.7709 56 29.1857 56 26.3318C56.0018 20.6258 51.3932 16 45.7083 16Z" fill="white"/>
<path d="M28.9957 41.9339H11.1454C9.409 41.9339 8 43.3481 8 45.091C8 46.8338 9.409 48.248 11.1454 48.248H35.2846L28.9939 41.9339H28.9957Z" fill="white"/>
<path d="M17.4524 30.3494H11.1454C9.409 30.3494 8 31.7636 8 33.5065C8 35.2493 9.409 36.6636 11.1454 36.6636H23.7432L17.4524 30.3494Z" fill="white"/>
</svg>
