<svg width="141" height="129" viewBox="0 0 141 129" fill="none" xmlns="http://www.w3.org/2000/svg">
<g clip-path="url(#clip0_2572_2116)">
<path d="M131.025 87.1799C129.452 89.2589 126.944 92.772 124.087 96.5928C123.23 97.7342 122.343 98.9052 121.445 100.069C117.653 104.975 113.579 109.834 110.381 112.409C123.026 97.5081 111.502 77.3631 98.7645 67.12C98.7645 67.1015 98.7757 67.083 98.7831 67.0607C98.8758 66.8273 99.0057 66.6123 99.1764 66.4196C99.1801 66.4159 99.1838 66.4085 99.1875 66.4048L116.499 46.9231C117.356 45.9558 118.841 45.8966 119.787 46.7786C120.284 47.2418 120.777 47.7124 121.263 48.1905L121.293 48.1571C133.24 59.7528 140.271 74.9654 131.025 87.1799Z" stroke="#A4B0B3" stroke-width="2" stroke-linecap="round" stroke-linejoin="round"/>
<path d="M34.6703 18.5732C31.3867 21.738 28.259 25.0288 25.3094 28.4568C25.4726 28.2826 25.6544 28.1158 25.8473 27.975C23.9254 29.5796 23.6546 32.4035 23.2836 34.6789C17.837 35.194 12.3829 37.3471 8.62817 41.4199C14.175 34.3861 23.3912 26.7335 34.6703 18.5732Z" stroke="#A4B0B3" stroke-width="2" stroke-linecap="round" stroke-linejoin="round"/>
<path d="M110.381 112.409C102.46 120.321 90.9546 121.014 79.9945 119.095C63.5248 115.841 43.4525 105.906 31.3905 93.4354C24.1333 83.8594 27.3872 79.4235 32.7188 74.0685C32.2439 74.6318 31.8246 75.2025 31.4722 75.7732C31.4647 75.777 31.461 75.7844 31.4573 75.7881C22.0148 90.9228 52.8653 108.522 73.4237 115.23C97.3399 122.434 115.208 110.549 112.518 93.3576C111.543 87.1206 107.862 80.1869 100.787 73.2162C100.434 72.8678 100.078 72.5269 99.7181 72.186C99.3508 71.8413 98.9798 71.4967 98.6013 71.1557L98.6347 67.839C98.6347 67.5944 98.6792 67.3498 98.7646 67.12C111.502 77.3631 123.026 97.5081 110.381 112.409Z" stroke="#A4B0B3" stroke-width="2" stroke-linecap="round" stroke-linejoin="round"/>
<path d="M136.843 110.175C130.35 123.279 123.252 129.075 99.1801 127.326C46.3353 123.479 -21.0165 75.3619 8.62824 41.4199C9.24043 40.7565 9.90085 40.1413 10.5947 39.5781C10.8284 39.3891 11.0696 39.2075 11.3107 39.0259C11.474 38.9073 11.6409 38.7887 11.8079 38.6738C12.2012 38.3996 12.6056 38.1439 13.0174 37.8993C13.4664 37.6325 13.9265 37.3842 14.3902 37.1544C14.5461 37.0766 14.6982 37.0025 14.854 36.9284C16.4086 36.1983 18.0522 35.6424 19.7292 35.257C20.0261 35.1866 20.3229 35.1236 20.6197 35.0643C20.8089 35.0273 20.9981 34.9939 21.1874 34.9605C21.3543 34.9309 21.525 34.905 21.692 34.879C22.2003 34.7975 22.7123 34.7345 23.2206 34.6863C23.2428 34.6826 23.2614 34.6826 23.2836 34.6789C23.1389 35.6647 23.0351 36.5726 22.9646 37.4027C22.9571 37.4583 22.9534 37.5139 22.9497 37.5695C13.0916 38.974 4.66572 47.3418 4.82897 57.5626C4.04982 99.1276 88.2423 134.381 120.529 122.66C126.194 120.981 130.947 117.75 134.268 112.32C135.615 110.119 137.251 107.084 138.152 104.208C138.902 101.825 139.143 99.5501 138.286 97.9528C140.909 100.573 139.288 105.268 136.843 110.175Z" stroke="#A4B0B3" stroke-width="2" stroke-linecap="round" stroke-linejoin="round"/>
<path d="M73.4237 115.23C52.8653 108.522 22.0147 90.9228 31.4573 75.7881C31.461 75.7844 31.4647 75.7769 31.4721 75.7732C32.5889 74.3872 33.9394 72.8975 34.8113 71.997C34.9115 71.8969 35.0005 71.8043 35.0859 71.719C35.5459 71.2595 36.0134 70.8074 36.4883 70.3738C37.8314 69.1434 39.2042 68.0724 40.3989 67.4795C40.6289 67.3646 40.8516 67.2683 41.0668 67.1942C42.8143 66.579 46.1349 67.0904 49.4816 68.758C47.7711 69.7216 46.2499 71.2817 44.751 72.7381C42.0759 75.3322 36.1618 79.1159 35.0859 83.5111C34.9597 84.041 34.8966 84.5747 34.9189 85.1194C34.93 85.364 34.956 85.6086 35.0005 85.8532C35.6943 89.6443 39.8572 91.8011 43.4561 90.9043C45.5858 90.3743 46.9289 88.8475 48.4427 87.3763C51.5185 84.3857 54.5905 81.3987 57.6663 78.4081C57.7888 78.2895 57.9075 78.1635 58.0151 78.0375C58.0707 77.9745 58.1264 77.9115 58.1746 77.8485C58.3824 77.5928 58.5642 77.326 58.7163 77.0518C58.7571 76.9813 58.7905 76.9146 58.8276 76.8442C58.976 76.5589 59.0948 76.2661 59.1875 75.9696C59.2061 75.9066 59.2283 75.8436 59.2432 75.7769C59.2654 75.7065 59.284 75.6324 59.2988 75.5583C59.3322 75.4138 59.3619 75.2692 59.3842 75.121C59.4101 74.9579 59.4287 74.7949 59.4361 74.6355C61.2096 75.6398 63.0165 76.6404 64.8048 77.6039C61.8811 78.5526 59.8294 80.7576 59.8294 83.3295C59.8294 86.7648 63.4877 89.5479 67.9956 89.5479C72.5035 89.5479 76.0394 86.8538 76.1507 83.4926C78.1913 84.5043 79.9017 85.3232 81.1001 85.868C79.36 86.4535 77.8351 87.632 76.5106 89.1403C74.1397 91.8456 67.6505 97.2598 67.9325 101.937C67.9845 102.833 68.2887 103.701 68.912 104.52C75.9986 113.755 85.9716 98.2641 89.296 94.184C90.2421 93.0389 90.5798 91.8382 90.4759 90.7042C90.4722 90.6745 90.4684 90.6486 90.4684 90.6263C90.4573 90.5633 90.4499 90.5152 90.4462 90.4818C90.4425 90.4485 90.4388 90.4299 90.4388 90.4299C90.3609 89.9408 90.2013 89.4664 89.975 89.018C99.1689 91.8752 107.346 93.3761 112.333 93.3205C112.396 93.3279 112.459 93.339 112.518 93.3576C115.208 110.549 97.3398 122.434 73.4237 115.23Z" stroke="#A4B0B3" stroke-width="2" stroke-linecap="round" stroke-linejoin="round"/>
<path d="M138.152 104.208C137.251 107.084 135.615 110.119 134.268 112.32C130.947 117.75 126.194 120.981 120.529 122.66C88.2423 134.381 4.04983 99.1276 4.82898 57.5626C4.66573 47.3418 13.0917 38.974 22.9497 37.5695C22.9534 37.5139 22.9572 37.4583 22.9646 37.4027C22.7939 40.3711 22.9609 43.0653 23.1575 43.9287C23.3913 44.0399 24.3188 44.4809 25.7992 45.185C27.1089 45.8113 28.8527 46.6414 30.9267 47.6309C25.7658 55.1909 40.3989 67.4795 40.3989 67.4795C39.2042 68.0725 37.8315 69.1434 36.4884 70.3738C36.0135 70.8074 35.546 71.2595 35.0859 71.719C34.1732 72.4936 33.3866 73.2755 32.7188 74.0685C27.3872 79.4235 24.1333 83.8594 31.3905 93.4354C43.4525 105.906 63.5248 115.841 79.9945 119.095C90.9545 121.014 102.46 120.321 110.381 112.409C113.579 109.834 117.653 104.975 121.445 100.069C122.343 98.9052 123.23 97.7342 124.087 96.5928C128.109 96.4186 136.754 96.2556 138.286 97.9528C139.143 99.5501 138.902 101.825 138.152 104.208Z" stroke="#A4B0B3" stroke-width="2" stroke-linecap="round" stroke-linejoin="round"/>
<path d="M97.0356 64.5445L96.249 78.7639C96.249 78.7639 49.797 56.625 30.9268 47.6309C28.8527 46.6414 27.1089 45.8113 25.7992 45.185C24.3188 44.4809 23.3913 44.0399 23.1575 43.9287C22.9609 43.0653 22.7939 40.3711 22.9646 37.4027C23.0351 36.5726 23.139 35.6647 23.2837 34.6789C23.4469 33.6968 23.5842 32.6036 23.8514 31.5474C23.8625 31.5141 23.8699 31.477 23.881 31.44C24.2112 30.3282 24.6379 29.3573 25.187 28.6495C25.1907 28.6495 25.1945 28.6383 25.1982 28.6346C25.3874 28.4049 25.5952 28.1862 25.8326 27.9898C25.8326 27.9824 25.8437 27.9787 25.8475 27.975L25.8586 27.9639C25.9142 27.9083 25.9736 27.8527 26.0367 27.8008C26.1072 27.7526 26.1814 27.7082 26.2556 27.6637C26.3001 27.6341 26.3446 27.6044 26.3929 27.5859C49.0401 29.9947 95.5181 58.5966 97.0356 64.5445Z" stroke="#A4B0B3" stroke-width="2" stroke-linecap="round" stroke-linejoin="round"/>
<path d="M122.851 34.3454L121.701 47.2788L121.293 48.1571L121.263 48.1905C120.777 47.7124 120.284 47.2418 119.787 46.7786C118.841 45.8966 117.357 45.9558 116.499 46.9231L99.1875 66.4048C99.1875 66.4048 99.1801 66.4159 99.1764 66.4196C99.0057 66.6123 98.8759 66.8273 98.7831 67.0608C98.7757 67.083 98.7683 67.1015 98.7646 67.12C98.6792 67.3498 98.6347 67.5944 98.6347 67.839L98.6013 71.1557C98.9798 71.4967 99.3508 71.8413 99.7181 72.186C100.078 72.5269 100.434 72.8678 100.787 73.2162L96.249 78.7639L97.0356 64.5445L115.16 43.5433C115.193 43.5063 115.227 43.4692 115.26 43.4284L122.851 34.3454Z" stroke="#A4B0B3" stroke-width="2" stroke-linecap="round" stroke-linejoin="round"/>
<path d="M122.851 34.3454L115.26 43.4285C115.227 43.4692 115.193 43.5063 115.16 43.5433L97.0356 64.5445C95.5181 58.5966 49.0401 29.9947 26.3928 27.5859C26.3446 27.6044 26.3001 27.6341 26.2556 27.6637C26.1814 27.7082 26.1071 27.7526 26.0367 27.8008C25.7621 27.9861 25.5172 28.2048 25.3094 28.4568C25.6656 28.0454 26.0255 27.6303 26.3891 27.2153C27.3093 26.1739 28.2554 25.1289 29.2312 24.0912C30.5743 22.6497 31.973 21.2155 33.4163 19.7961C33.6352 19.5812 33.8541 19.3663 34.073 19.1587C34.2697 18.9623 34.47 18.7696 34.6704 18.5732C34.6704 18.5732 34.6728 18.5732 34.6778 18.5732C40.232 13.2294 45.0219 9.4642 51.615 5.07275C56.0672 2.10805 58.9798 -2.00175 77.9576 6.18451C106.419 18.462 122.851 28.8644 122.851 34.3491V34.3454Z" stroke="#A4B0B3" stroke-width="2" stroke-linecap="round" stroke-linejoin="round"/>
<path d="M57.8111 101.262C62.6572 101.262 66.5858 98.269 66.5858 94.5768C66.5858 90.8846 62.6572 87.8914 57.8111 87.8914C52.9649 87.8914 49.0364 90.8846 49.0364 94.5768C49.0364 98.269 52.9649 101.262 57.8111 101.262Z" stroke="#A4B0B3" stroke-width="2" stroke-linecap="round" stroke-linejoin="round"/>
<path d="M76.1581 83.3295C76.1581 83.3851 76.1581 83.4407 76.1506 83.4926C76.0393 86.8538 72.433 89.5479 67.9956 89.5479C63.5581 89.5479 59.8293 86.7648 59.8293 83.3295C59.8293 80.7576 61.8811 78.5526 64.8048 77.6039C65.7843 77.2852 66.8639 77.1111 67.9956 77.1111C72.5035 77.1111 76.1581 79.8942 76.1581 83.3295Z" stroke="#A4B0B3" stroke-width="2" stroke-linecap="round" stroke-linejoin="round"/>
<path d="M59.4361 74.6355C59.4287 74.7949 59.4102 74.9579 59.3842 75.1173C59.3619 75.2692 59.3323 75.4138 59.2989 75.5583C59.284 75.6324 59.2655 75.7065 59.2432 75.7769C59.2284 75.8436 59.2061 75.9066 59.1876 75.9696C59.0948 76.2661 58.9761 76.5589 58.8277 76.8442C58.7906 76.9146 58.7572 76.9813 58.7164 77.0518C58.5642 77.326 58.3824 77.5928 58.1747 77.8485C58.1264 77.9115 58.0708 77.9745 58.0151 78.0375C57.9075 78.1635 57.7888 78.2895 57.6664 78.4081C54.5906 81.3987 51.5185 84.3857 48.4427 87.3763C46.929 88.8475 45.5859 90.3743 43.4562 90.9043C39.8573 91.8011 35.6944 89.6443 35.0006 85.8532C34.9561 85.6086 34.9301 85.364 34.919 85.1194C34.8967 84.5747 34.9598 84.041 35.0859 83.5111C36.1619 79.1159 42.076 75.3322 44.7511 72.7381C46.25 71.2817 47.7712 69.7216 49.4816 68.758C51.244 67.7649 53.2067 67.4017 55.5552 68.4319C58.119 69.5548 59.6031 72.1193 59.4361 74.6355Z" stroke="#A4B0B3" stroke-width="2" stroke-linecap="round" stroke-linejoin="round"/>
<path d="M59.0984 78.2969C58.579 80.3537 57.0022 81.6545 55.5515 83.0664C52.4868 86.0496 49.4185 89.0328 46.3538 92.0161C43.2446 95.0104 37.3491 93.3168 35.0858 89.5479C34.0952 87.8988 34.6406 84.3523 35.0821 83.5185C35.0821 83.5185 35.0858 83.5185 35.0858 83.5111C34.9597 84.041 34.8966 84.5747 34.9189 85.1194C34.93 85.364 34.956 85.6086 35.0005 85.8532C35.6943 89.6443 39.8572 91.8011 43.4561 90.9043C45.5858 90.3744 46.9289 88.8475 48.4427 87.3763C51.5185 84.3857 54.5905 81.3987 57.6663 78.4081C57.7887 78.2895 57.9075 78.1635 58.0151 78.0375C58.0707 77.9745 58.1264 77.9115 58.1746 77.8485C58.3824 77.5928 58.5642 77.326 58.7163 77.0518C58.7571 76.9814 58.7905 76.9147 58.8276 76.8442C58.976 76.5589 59.0947 76.2661 59.1875 75.9697C59.206 75.9067 59.2283 75.8437 59.2431 75.7769C59.2654 75.7065 59.284 75.6324 59.2988 75.5583C59.3322 75.4138 59.3619 75.2692 59.3841 75.121C59.3953 75.21 59.5548 76.4959 59.0984 78.2969Z" stroke="#A4B0B3" stroke-width="2" stroke-linecap="round" stroke-linejoin="round"/>
<path d="M89.296 94.184C85.9716 98.2641 75.9985 113.755 68.912 104.52C68.2887 103.701 67.9844 102.833 67.9325 101.94C67.6505 97.2598 74.1397 91.8456 76.5105 89.1403C77.8351 87.632 79.36 86.4535 81.1001 85.868C82.3875 85.4307 83.79 85.3158 85.3112 85.6271C87.3407 86.0459 89.129 87.3541 89.975 89.018C90.2013 89.4664 90.3608 89.9408 90.4387 90.4299C90.4387 90.4299 90.4387 90.4485 90.4462 90.4818C90.4499 90.5152 90.4573 90.5633 90.4684 90.6263C90.4684 90.6486 90.4721 90.6745 90.4758 90.7042C90.5797 91.8382 90.2421 93.0389 89.296 94.184Z" stroke="#A4B0B3" stroke-width="2" stroke-linecap="round" stroke-linejoin="round"/>
<path d="M90.806 94.2692C90.8431 95.3254 90.4869 96.5298 89.6113 97.5897C86.3426 101.607 75.9577 116.075 68.5335 106.658C67.3166 105.116 67.9288 101.944 67.9288 101.944H67.9325C67.9844 102.833 68.2886 103.701 68.912 104.52C75.9985 113.755 85.9716 98.2641 89.296 94.184C90.2421 93.0389 90.5797 91.8382 90.4758 90.7042C90.5612 91.323 90.7578 92.8906 90.806 94.2692Z" stroke="#A4B0B3" stroke-width="2" stroke-linecap="round" stroke-linejoin="round"/>
<path d="M107.662 33.9081C109.826 33.9081 111.58 32.156 111.58 29.9947C111.58 27.8334 109.826 26.0813 107.662 26.0813C105.498 26.0813 103.744 27.8334 103.744 29.9947C103.744 32.156 105.498 33.9081 107.662 33.9081Z" fill="#E86161"/>
</g>
<defs>
<clipPath id="clip0_2572_2116">
<rect width="141" height="129" fill="white"/>
</clipPath>
</defs>
</svg>
