<svg width="40" height="40" viewBox="0 0 40 40" fill="none" xmlns="http://www.w3.org/2000/svg">
<path d="M16.3281 14.8438L13.3594 16.0156V21.6406H10V13.8281L18.6719 10.1562C18.8281 10.1562 19.0365 10.1302 19.2969 10.0781C19.6094 10.026 19.8438 10 20 10C21.0938 10 22.0312 10.5469 22.8125 11.6406L24.5312 14.2969C26.0417 17.0052 28.4115 18.3594 31.6406 18.3594V21.6406C27.9427 21.6406 24.8958 20.2604 22.5 17.5L21.4844 22.5L25 25.8594V38.3594H21.6406V28.3594L18.2031 25L15.1562 38.3594H11.6406L16.3281 14.8438ZM22.5 9.14062C23.3854 9.14062 24.1667 8.82812 24.8438 8.20312C25.5208 7.52604 25.8594 6.74479 25.8594 5.85938C25.8594 4.97396 25.5208 4.19271 24.8438 3.51562C24.1667 2.83854 23.3854 2.5 22.5 2.5C21.6146 2.5 20.8333 2.83854 20.1562 3.51562C19.4792 4.19271 19.1406 4.97396 19.1406 5.85938C19.1406 6.74479 19.4792 7.52604 20.1562 8.20312C20.8333 8.82812 21.6146 9.14062 22.5 9.14062Z" fill="white"/>
</svg>
