<svg width="40" height="40" viewBox="0 0 40 40" fill="none" xmlns="http://www.w3.org/2000/svg">
<path d="M30 18.3594V10H10V18.3594H30ZM25.7031 27.6562C26.1719 28.125 26.7708 28.3594 27.5 28.3594C28.2292 28.3594 28.8281 28.125 29.2969 27.6562C29.7656 27.1354 30 26.5365 30 25.8594C30 25.1823 29.7656 24.6094 29.2969 24.1406C28.8281 23.6198 28.2292 23.3594 27.5 23.3594C26.7708 23.3594 26.1719 23.6198 25.7031 24.1406C25.2344 24.6094 25 25.1823 25 25.8594C25 26.5365 25.2344 27.1354 25.7031 27.6562ZM10.7031 27.6562C11.1719 28.125 11.7708 28.3594 12.5 28.3594C13.2292 28.3594 13.8281 28.125 14.2969 27.6562C14.7656 27.1354 15 26.5365 15 25.8594C15 25.1823 14.7656 24.6094 14.2969 24.1406C13.8281 23.6198 13.2292 23.3594 12.5 23.3594C11.7708 23.3594 11.1719 23.6198 10.7031 24.1406C10.2344 24.6094 10 25.1823 10 25.8594C10 26.5365 10.2344 27.1354 10.7031 27.6562ZM6.64062 26.6406V10C6.64062 7.34375 7.78646 5.57292 10.0781 4.6875C12.3698 3.80208 15.6771 3.35938 20 3.35938C24.3229 3.35938 27.6302 3.80208 29.9219 4.6875C32.2135 5.57292 33.3594 7.34375 33.3594 10V26.6406C33.3594 28.099 32.7865 29.349 31.6406 30.3906V33.3594C31.6406 33.8281 31.4844 34.2188 31.1719 34.5312C30.8594 34.8438 30.4688 35 30 35H28.3594C27.8906 35 27.474 34.8438 27.1094 34.5312C26.7969 34.2188 26.6406 33.8281 26.6406 33.3594V31.6406H13.3594V33.3594C13.3594 33.8281 13.1771 34.2188 12.8125 34.5312C12.5 34.8438 12.1094 35 11.6406 35H10C9.53125 35 9.14062 34.8438 8.82812 34.5312C8.51562 34.2188 8.35938 33.8281 8.35938 33.3594V30.3906C7.21354 29.349 6.64062 28.099 6.64062 26.6406Z" fill="white"/>
</svg>
