<svg width="40" height="40" viewBox="0 0 40 40" fill="none" xmlns="http://www.w3.org/2000/svg">
<path d="M27.5 32.5C28.6458 33.5938 30.026 34.1406 31.6406 34.1406C33.2552 34.1406 34.6354 33.5938 35.7812 32.5C36.9271 31.3542 37.5 29.974 37.5 28.3594C37.5 26.7448 36.9271 25.3646 35.7812 24.2188C34.6354 23.0729 33.2552 22.5 31.6406 22.5C30.026 22.5 28.6458 23.0729 27.5 24.2188C26.4062 25.3646 25.8594 26.7448 25.8594 28.3594C25.8594 29.974 26.4062 31.3542 27.5 32.5ZM25.7031 22.4219C27.3177 20.8073 29.2969 20 31.6406 20C33.9844 20 35.9635 20.8073 37.5781 22.4219C39.1927 24.0365 40 26.0156 40 28.3594C40 30.7031 39.1927 32.6823 37.5781 34.2969C35.9635 35.8594 33.9844 36.6406 31.6406 36.6406C29.2969 36.6406 27.3177 35.8594 25.7031 34.2969C24.1406 32.6823 23.3594 30.7031 23.3594 28.3594C23.3594 26.0156 24.1406 24.0365 25.7031 22.4219ZM17.9688 17.5L21.6406 21.3281V31.6406H18.3594V23.3594L12.9688 18.6719C12.3438 18.2552 12.0312 17.474 12.0312 16.3281C12.0312 15.3906 12.3438 14.6094 12.9688 13.9844L17.6562 9.29688C18.0729 8.67188 18.8542 8.35938 20 8.35938C20.9896 8.35938 21.875 8.67188 22.6562 9.29688L25.8594 12.5C27.526 14.1667 29.5052 15 31.7969 15V18.3594C28.5156 18.3594 25.7031 17.1875 23.3594 14.8438L22.0312 13.5156L17.9688 17.5ZM4.21875 32.5C5.36458 33.5938 6.74479 34.1406 8.35938 34.1406C9.97396 34.1406 11.3281 33.5938 12.4219 32.5C13.5677 31.3542 14.1406 29.974 14.1406 28.3594C14.1406 26.7448 13.5677 25.3646 12.4219 24.2188C11.3281 23.0729 9.97396 22.5 8.35938 22.5C6.74479 22.5 5.36458 23.0729 4.21875 24.2188C3.07292 25.3646 2.5 26.7448 2.5 28.3594C2.5 29.974 3.07292 31.3542 4.21875 32.5ZM2.42188 22.4219C4.03646 20.8073 6.01562 20 8.35938 20C10.7031 20 12.6562 20.8073 14.2188 22.4219C15.8333 24.0365 16.6406 26.0156 16.6406 28.3594C16.6406 30.7031 15.8333 32.6823 14.2188 34.2969C12.6562 35.8594 10.7031 36.6406 8.35938 36.6406C6.01562 36.6406 4.03646 35.8594 2.42188 34.2969C0.807292 32.6823 0 30.7031 0 28.3594C0 26.0156 0.807292 24.0365 2.42188 22.4219ZM28.125 8.20312C27.5 8.82812 26.7448 9.14062 25.8594 9.14062C24.974 9.14062 24.1927 8.82812 23.5156 8.20312C22.8385 7.52604 22.5 6.74479 22.5 5.85938C22.5 4.97396 22.8385 4.19271 23.5156 3.51562C24.1927 2.83854 24.974 2.5 25.8594 2.5C26.7448 2.5 27.5 2.83854 28.125 3.51562C28.8021 4.19271 29.1406 4.97396 29.1406 5.85938C29.1406 6.74479 28.8021 7.52604 28.125 8.20312Z" fill="white"/>
</svg>
