<svg width="40" height="40" viewBox="0 0 40 40" fill="none" xmlns="http://www.w3.org/2000/svg">
<path d="M15.3125 11.9531C16.6146 10.651 18.1771 10 20 10C21.8229 10 23.3854 10.651 24.6875 11.9531C25.9896 13.2552 26.6406 14.8177 26.6406 16.6406C26.6406 18.0469 25.8073 19.5052 24.1406 21.0156C22.474 22.474 21.6406 23.8021 21.6406 25H18.3594C18.3594 23.8021 18.6198 22.7865 19.1406 21.9531C19.6615 21.0677 20.2344 20.4427 20.8594 20.0781C21.4844 19.6615 22.0573 19.1667 22.5781 18.5938C23.099 18.0208 23.3594 17.3698 23.3594 16.6406C23.3594 15.7552 23.0208 15 22.3438 14.375C21.6667 13.6979 20.8854 13.3594 20 13.3594C19.1146 13.3594 18.3333 13.6979 17.6562 14.375C16.9792 15 16.6406 15.7552 16.6406 16.6406H13.3594C13.3594 14.8177 14.0104 13.2552 15.3125 11.9531ZM10.5469 29.4531C13.2031 32.0573 16.3542 33.3594 20 33.3594C23.6458 33.3594 26.7708 32.0573 29.375 29.4531C32.0312 26.7969 33.3594 23.6458 33.3594 20C33.3594 16.3542 32.0312 13.2292 29.375 10.625C26.7708 7.96875 23.6458 6.64062 20 6.64062C16.3542 6.64062 13.2031 7.96875 10.5469 10.625C7.94271 13.2292 6.64062 16.3542 6.64062 20C6.64062 23.6458 7.94271 26.7969 10.5469 29.4531ZM8.20312 8.28125C11.4844 5 15.4167 3.35938 20 3.35938C24.5833 3.35938 28.4896 5 31.7188 8.28125C35 11.5104 36.6406 15.4167 36.6406 20C36.6406 24.5833 35 28.5156 31.7188 31.7969C28.4896 35.026 24.5833 36.6406 20 36.6406C15.4167 36.6406 11.4844 35.026 8.20312 31.7969C4.97396 28.5156 3.35938 24.5833 3.35938 20C3.35938 15.4167 4.97396 11.5104 8.20312 8.28125ZM18.3594 30V26.6406H21.6406V30H18.3594Z" fill="white"/>
</svg>
