<svg width="40" height="40" viewBox="0 0 40 40" fill="none" xmlns="http://www.w3.org/2000/svg">
<path d="M8.35938 18.3594H31.6406L29.1406 10.8594H10.8594L8.35938 18.3594ZM27.3438 25.9375C27.8646 26.4062 28.4635 26.6406 29.1406 26.6406C29.8177 26.6406 30.3906 26.4062 30.8594 25.9375C31.3802 25.4167 31.6406 24.8177 31.6406 24.1406C31.6406 23.4635 31.3802 22.8906 30.8594 22.4219C30.3906 21.901 29.8177 21.6406 29.1406 21.6406C28.4635 21.6406 27.8646 21.901 27.3438 22.4219C26.875 22.8906 26.6406 23.4635 26.6406 24.1406C26.6406 24.8177 26.875 25.4167 27.3438 25.9375ZM9.0625 25.9375C9.58333 26.4062 10.1823 26.6406 10.8594 26.6406C11.5365 26.6406 12.1094 26.4062 12.5781 25.9375C13.099 25.4167 13.3594 24.8177 13.3594 24.1406C13.3594 23.4635 13.099 22.8906 12.5781 22.4219C12.1094 21.901 11.5365 21.6406 10.8594 21.6406C10.1823 21.6406 9.58333 21.901 9.0625 22.4219C8.59375 22.8906 8.35938 23.4635 8.35938 24.1406C8.35938 24.8177 8.59375 25.4167 9.0625 25.9375ZM31.5625 10L35 20V33.3594C35 33.8281 34.8438 34.2188 34.5312 34.5312C34.2188 34.8438 33.8281 35 33.3594 35H31.6406C31.1719 35 30.7812 34.8438 30.4688 34.5312C30.1562 34.2188 30 33.8281 30 33.3594V31.6406H10V33.3594C10 33.8281 9.84375 34.2188 9.53125 34.5312C9.21875 34.8438 8.82812 35 8.35938 35H6.64062C6.17188 35 5.78125 34.8438 5.46875 34.5312C5.15625 34.2188 5 33.8281 5 33.3594V20L8.4375 10C8.75 8.90625 9.55729 8.35938 10.8594 8.35938H15V5H25V8.35938H29.1406C30.4427 8.35938 31.25 8.90625 31.5625 10Z" fill="white"/>
</svg>
