<svg width="40" height="40" viewBox="0 0 40 40" fill="none" xmlns="http://www.w3.org/2000/svg">
<path d="M26.6406 30V6.64062H11.6406V30H26.6406ZM17.3438 35.9375C17.8646 36.4062 18.4635 36.6406 19.1406 36.6406C19.8177 36.6406 20.3906 36.4062 20.8594 35.9375C21.3802 35.4167 21.6406 34.8177 21.6406 34.1406C21.6406 33.4635 21.3802 32.8906 20.8594 32.4219C20.3906 31.901 19.8177 31.6406 19.1406 31.6406C18.4635 31.6406 17.8646 31.901 17.3438 32.4219C16.875 32.8906 16.6406 33.4635 16.6406 34.1406C16.6406 34.8177 16.875 35.4167 17.3438 35.9375ZM25.8594 1.64062C27.0052 1.64062 27.9688 2.05729 28.75 2.89062C29.5833 3.72396 30 4.71354 30 5.85938V34.1406C30 35.2865 29.5833 36.276 28.75 37.1094C27.9688 37.9427 27.0052 38.3594 25.8594 38.3594H12.5C11.3542 38.3594 10.3646 37.9427 9.53125 37.1094C8.75 36.276 8.35938 35.2865 8.35938 34.1406V5.85938C8.35938 4.71354 8.75 3.72396 9.53125 2.89062C10.3646 2.05729 11.3542 1.64062 12.5 1.64062H25.8594Z" fill="white"/>
</svg>
