<svg width="40" height="40" viewBox="0 0 40 40" fill="none" xmlns="http://www.w3.org/2000/svg">
<path d="M20.8594 11.6406V20.3906L28.3594 24.8438L27.1094 26.9531L18.3594 21.6406V11.6406H20.8594ZM10.5469 29.4531C13.2031 32.0573 16.3542 33.3594 20 33.3594C23.6458 33.3594 26.7708 32.0573 29.375 29.4531C32.0312 26.7969 33.3594 23.6458 33.3594 20C33.3594 16.3542 32.0312 13.2292 29.375 10.625C26.7708 7.96875 23.6458 6.64062 20 6.64062C16.3542 6.64062 13.2031 7.96875 10.5469 10.625C7.94271 13.2292 6.64062 16.3542 6.64062 20C6.64062 23.6458 7.94271 26.7969 10.5469 29.4531ZM8.20312 8.28125C11.4844 5 15.4167 3.35938 20 3.35938C24.5833 3.35938 28.4896 5 31.7188 8.28125C35 11.5104 36.6406 15.4167 36.6406 20C36.6406 24.5833 35 28.5156 31.7188 31.7969C28.4896 35.026 24.5833 36.6406 20 36.6406C15.4167 36.6406 11.4844 35.026 8.20312 31.7969C4.97396 28.5156 3.35938 24.5833 3.35938 20C3.35938 15.4167 4.97396 11.5104 8.20312 8.28125Z" fill="white"/>
</svg>
