<svg width="40" height="40" viewBox="0 0 40 40" fill="none" xmlns="http://www.w3.org/2000/svg">
<path d="M30 26.4844V15C30 13.0208 29.1406 11.6927 27.4219 11.0156C25.7031 10.3385 23.2292 10 20 10C16.9271 10 14.4792 10.3385 12.6562 11.0156C10.8854 11.6927 10 13.0208 10 15V26.4844C10 27.6823 10.4167 28.724 11.25 29.6094C12.1354 30.4427 13.1771 30.8594 14.375 30.8594L12.5 32.7344V33.3594H15.3125L17.8125 30.8594H22.5L25 33.3594H27.5V32.7344L25.625 30.8594C26.8229 30.8594 27.8385 30.4427 28.6719 29.6094C29.5573 28.724 30 27.6823 30 26.4844ZM29.6875 4.6875C31.9271 5.52083 33.6458 6.82292 34.8438 8.59375C36.0417 10.3646 36.6406 12.4219 36.6406 14.7656V36.6406H3.35938V14.7656C3.35938 12.4219 3.95833 10.3646 5.15625 8.59375C6.35417 6.82292 8.07292 5.52083 10.3125 4.6875C12.5521 3.80208 15.7812 3.35938 20 3.35938C24.2188 3.35938 27.4479 3.80208 29.6875 4.6875ZM11.7188 15H28.3594V23.3594H11.7188V15ZM12.9688 27.8906C12.6562 27.526 12.5 27.1094 12.5 26.6406C12.5 26.1719 12.6562 25.7812 12.9688 25.4688C13.2812 25.1562 13.6719 25 14.1406 25C14.6094 25 15 25.1562 15.3125 25.4688C15.6771 25.7812 15.8594 26.1719 15.8594 26.6406C15.8594 27.1094 15.6771 27.526 15.3125 27.8906C15 28.2031 14.6094 28.3594 14.1406 28.3594C13.6719 28.3594 13.2812 28.2031 12.9688 27.8906ZM24.6094 27.8906C24.2969 27.526 24.1406 27.1094 24.1406 26.6406C24.1406 26.1719 24.2969 25.7812 24.6094 25.4688C24.974 25.1562 25.3906 25 25.8594 25C26.3281 25 26.7188 25.1562 27.0312 25.4688C27.3438 25.7812 27.5 26.1719 27.5 26.6406C27.5 27.1094 27.3438 27.526 27.0312 27.8906C26.7188 28.2031 26.3281 28.3594 25.8594 28.3594C25.3906 28.3594 24.974 28.2031 24.6094 27.8906Z" fill="white"/>
</svg>
